<svg width="20" height="19" viewBox="0 0 20 19" fill="none" xmlns="http://www.w3.org/2000/svg">
<path d="M19.0575 9.38127C19.0575 4.20093 14.8565 0 9.67619 0C4.49585 0 0.294922 4.20093 0.294922 9.38127C0.294922 14.5616 4.49585 18.7625 9.67619 18.7625C9.7313 18.7625 9.78613 18.7614 9.84109 18.7604V11.4575H7.82559V9.10857H9.84109V7.38008C9.84109 5.37545 11.0649 4.28438 12.853 4.28438C13.7093 4.28438 14.4454 4.34823 14.66 4.37671V6.47181H13.4269C12.4541 6.47181 12.2657 6.93417 12.2657 7.61255V9.10857H14.5919L14.2887 11.4575H12.2657V18.4001C16.1869 17.276 19.0575 13.6634 19.0575 9.38127Z" fill="white"/>
</svg>
