<svg width="71" height="19" viewBox="0 0 71 19" fill="none" xmlns="http://www.w3.org/2000/svg">
<path d="M4.616 13.848H10.4V18H0.32V1.2H4.616V13.848ZM27.2047 15.84C25.5087 17.52 23.4287 18.36 20.9647 18.36C18.5007 18.36 16.4127 17.52 14.7007 15.84C13.0047 14.144 12.1567 12.064 12.1567 9.6C12.1567 7.136 13.0047 5.064 14.7007 3.384C16.4127 1.688 18.5007 0.839999 20.9647 0.839999C23.4287 0.839999 25.5087 1.688 27.2047 3.384C28.9167 5.064 29.7727 7.136 29.7727 9.6C29.7727 12.064 28.9167 14.144 27.2047 15.84ZM17.7247 12.888C18.5887 13.736 19.6687 14.16 20.9647 14.16C22.2607 14.16 23.3407 13.736 24.2047 12.888C25.0687 12.024 25.5007 10.928 25.5007 9.6C25.5007 8.272 25.0687 7.184 24.2047 6.336C23.3407 5.472 22.2607 5.04 20.9647 5.04C19.6687 5.04 18.5887 5.472 17.7247 6.336C16.8607 7.184 16.4287 8.272 16.4287 9.6C16.4287 10.928 16.8607 12.024 17.7247 12.888ZM50.1256 8.376V10.08C50.1256 12.544 49.3496 14.544 47.7976 16.08C46.2616 17.6 44.2616 18.36 41.7976 18.36C39.1736 18.36 37.0136 17.52 35.3176 15.84C33.6376 14.16 32.7976 12.088 32.7976 9.624C32.7976 7.16 33.6376 5.08 35.3176 3.384C36.9976 1.688 39.0776 0.839999 41.5576 0.839999C43.1256 0.839999 44.5576 1.192 45.8536 1.896C47.1656 2.6 48.1896 3.536 48.9256 4.704L45.2776 6.792C44.9416 6.264 44.4456 5.84 43.7896 5.52C43.1496 5.2 42.4216 5.04 41.6056 5.04C40.2776 5.04 39.1896 5.472 38.3416 6.336C37.4936 7.2 37.0696 8.304 37.0696 9.648C37.0696 10.944 37.4856 12.04 38.3176 12.936C39.1656 13.832 40.3496 14.28 41.8696 14.28C43.8216 14.28 45.1096 13.544 45.7336 12.072H41.6536V8.376H50.1256ZM68.2053 15.84C66.5093 17.52 64.4293 18.36 61.9653 18.36C59.5013 18.36 57.4133 17.52 55.7013 15.84C54.0053 14.144 53.1573 12.064 53.1573 9.6C53.1573 7.136 54.0053 5.064 55.7013 3.384C57.4133 1.688 59.5013 0.839999 61.9653 0.839999C64.4293 0.839999 66.5093 1.688 68.2053 3.384C69.9173 5.064 70.7733 7.136 70.7733 9.6C70.7733 12.064 69.9173 14.144 68.2053 15.84ZM58.7253 12.888C59.5893 13.736 60.6693 14.16 61.9653 14.16C63.2613 14.16 64.3413 13.736 65.2053 12.888C66.0693 12.024 66.5013 10.928 66.5013 9.6C66.5013 8.272 66.0693 7.184 65.2053 6.336C64.3413 5.472 63.2613 5.04 61.9653 5.04C60.6693 5.04 59.5893 5.472 58.7253 6.336C57.8613 7.184 57.4293 8.272 57.4293 9.6C57.4293 10.928 57.8613 12.024 58.7253 12.888Z" fill="#FF9900"/>
</svg>
