<svg width="68" height="68" viewBox="0 0 68 68" fill="none" xmlns="http://www.w3.org/2000/svg">
<path fill-rule="evenodd" clip-rule="evenodd" d="M5.18739 15.9049C1.90087 21.1324 0 27.3191 0 33.9497C0 52.6997 15.1998 67.8995 33.9497 67.8995C52.6997 67.8995 67.8995 52.6997 67.8995 33.9497C67.8995 15.1998 52.6997 0 33.9497 0C32.513 0 31.097 0.0892535 29.7072 0.262519L28.7503 3.43486C30.4408 3.1489 32.1779 3 33.9497 3C51.0428 3 64.8995 16.8567 64.8995 33.9497C64.8995 51.0428 51.0428 64.8995 33.9497 64.8995C16.8567 64.8995 3 51.0428 3 33.9497C3 26.9937 5.2948 20.5736 9.16864 15.4053L5.18739 15.9049Z" fill="#FFB800"/>
</svg>
